<?xml version="1.0" encoding="UTF-8"?>
<svg id="Livello_1" data-name="Livello 1" xmlns="http://www.w3.org/2000/svg" viewBox="0 0 350 350">
  <rect x="0" y="0" width="350" height="350" rx="175" ry="175" style="fill: #1d1e1b;"/>
  <path d="M267.64,173.91c0,19.5-2.12,36.94-6.36,52.31-4.24,15.38-10.44,28.37-18.62,38.96-8.17,10.6-18.14,18.68-29.88,24.25-11.75,5.57-25.19,8.36-40.32,8.36-13.08,0-25.13-2.3-36.15-6.9-11.02-4.6-20.53-11.83-28.52-21.71-7.99-9.87-14.23-22.49-18.71-37.87-4.48-15.38-6.72-33.79-6.72-55.22,0-19.5,2.15-36.93,6.45-52.31,4.3-15.38,10.5-28.36,18.62-38.96,8.11-10.59,18.1-18.68,29.97-24.25,11.87-5.57,25.31-8.36,40.32-8.36,13.08,0,25.13,2.3,36.15,6.9,11.02,4.6,20.49,11.81,28.43,21.62,7.93,9.81,14.14,22.4,18.62,37.78,4.48,15.38,6.72,33.85,6.72,55.4Zm-140.59,.73v6.81c0,2.12,.12,4.27,.36,6.45l89-64.3c-4.24-11.99-9.84-20.86-16.8-26.61-6.96-5.75-15.17-8.63-24.61-8.63-6.78,0-13.08,1.73-18.89,5.18s-10.87,8.75-15.17,15.89c-4.3,7.15-7.69,16.11-10.17,26.88-2.48,10.78-3.72,23.55-3.72,38.33Zm95.91,.73c0-2.06-.06-4.15-.18-6.27-.12-2.12-.18-4.15-.18-6.08l-88.46,63.94c3.87,11.75,9.32,20.47,16.35,26.16,7.02,5.69,15.2,8.54,24.52,8.54,6.78,0,13.11-1.75,18.98-5.27,5.87-3.51,10.96-8.81,15.26-15.89,4.3-7.08,7.66-16.04,10.08-26.88,2.42-10.84,3.63-23.58,3.63-38.24Z" style="fill: #fffdf1;"/>
</svg>