<?xml version="1.0" encoding="UTF-8"?>
<svg id="Livello_1" data-name="Livello 1" xmlns="http://www.w3.org/2000/svg" viewBox="0 0 2800 1000">
  <rect width="2800" height="1000" rx="237.83" ry="237.83" style="fill: #1d1e1b;"/>
  <g>
    <g>
      <path d="M947.87,449.48v-3.93h22.92v3.93h-22.92Z" style="fill: #ffea82;"/>
      <path d="M987.59,449.22c-2.81,0-4.91-.68-6.29-2.03-1.38-1.35-2.08-3.49-2.08-6.42v-5.17c0-1.4-.31-2.45-.94-3.16-.63-.7-1.66-1.06-3.12-1.06h-1.28v-3.85h1.28c.73,0,1.36-.08,1.87-.23,.51-.16,.94-.4,1.26-.72s.56-.74,.71-1.25,.22-1.11,.22-1.82v-3.59c0-1.4,.16-2.63,.48-3.68,.31-1.06,.82-1.94,1.5-2.65s1.54-1.24,2.59-1.6c1.05-.36,2.31-.54,3.79-.54h1.71v3.83h-1.28c-.65,0-1.24,.08-1.76,.23s-.97,.41-1.36,.77c-.38,.35-.67,.82-.88,1.39s-.3,1.3-.3,2.15v3.56c0,1.02-.09,1.89-.25,2.6-.17,.72-.44,1.32-.78,1.8-.36,.48-.8,.85-1.34,1.12-.54,.26-1.18,.45-1.91,.56,1.45,.17,2.53,.73,3.24,1.7,.71,.97,1.06,2.46,1.06,4.46v5.17c0,.88,.1,1.62,.3,2.2s.5,1.05,.88,1.4,.83,.6,1.36,.76c.52,.15,1.11,.23,1.76,.23h1.28v3.83h-1.71Z" style="fill: #ffea82;"/>
      <path d="M1022.78,411.45c2.82,0,4.93,.68,6.31,2.03s2.08,3.5,2.08,6.44v3.42c0,1.4,.3,2.45,.92,3.14s1.65,1.04,3.11,1.04h1.31v3.85h-1.31c-.73,0-1.36,.08-1.87,.23-.51,.16-.93,.4-1.25,.72-.32,.32-.55,.74-.7,1.25s-.22,1.11-.22,1.82v5.35c0,1.4-.16,2.62-.48,3.67s-.82,1.93-1.5,2.64-1.55,1.24-2.6,1.6-2.33,.54-3.8,.54h-1.71v-3.83h1.31c.65,0,1.24-.08,1.76-.23s.97-.4,1.36-.77c.38-.36,.67-.83,.88-1.4s.3-1.3,.3-2.15v-5.29c0-1.02,.09-1.89,.25-2.62s.43-1.33,.77-1.81,.79-.85,1.33-1.11c.54-.26,1.18-.44,1.91-.55-1.45-.17-2.53-.75-3.23-1.72-.7-.97-1.04-2.46-1.04-4.46v-3.4c0-.88-.1-1.62-.3-2.21s-.5-1.06-.88-1.42c-.38-.35-.84-.6-1.36-.76-.52-.15-1.11-.23-1.76-.23h-1.31v-3.83h1.71v.03Z" style="fill: #ffea82;"/>
      <path d="M1039.58,449.48v-3.93h22.92v3.93h-22.92Z" style="fill: #ffea82;"/>
      <path d="M931.49,497.16v-37.76h10.7v3.86h-6.13v30.03h6.13v3.86h-10.7Z" style="fill: #6ec7e0;"/>
      <path d="M984.73,477.9h-4.26l.57-6.29-5.11,3.66-2.05-3.54,5.72-2.63-5.72-2.63,2.05-3.54,5.11,3.66-.57-6.29h4.26l-.59,6.29,5.13-3.66,2.04,3.54-5.7,2.63,5.7,2.63-2.04,3.54-5.13-3.66,.59,6.29Z" style="fill: #6ec7e0;"/>
      <path d="M994.06,497.43v-3.93h22.92v3.93h-22.92Z" style="fill: #6ec7e0;"/>
      <path d="M1030.58,477.9h-4.26l.57-6.29-5.11,3.66-2.05-3.54,5.72-2.63-5.72-2.63,2.05-3.54,5.11,3.66-.57-6.29h4.26l-.59,6.29,5.13-3.66,2.04,3.54-5.7,2.63,5.7,2.63-2.04,3.54-5.13-3.66,.59,6.29Z" style="fill: #6ec7e0;"/>
      <path d="M1068.21,497.16v-3.86h6.08v-30.03h-6.08v-3.86h10.67v37.76h-10.67Z" style="fill: #6ec7e0;"/>
      <path d="M911.21,524.77v-16.92h4.58v16.92h-4.58Zm0,24.78v-17.42h4.58v17.42h-4.58Z" style="fill: #bad9eb;"/>
      <path d="M964.67,549.29c-2.81,0-4.91-.68-6.29-2.03s-2.08-3.49-2.08-6.42v-5.17c0-1.4-.31-2.45-.94-3.16-.63-.7-1.66-1.06-3.12-1.06h-1.28v-3.85h1.28c.73,0,1.36-.08,1.87-.23,.51-.16,.94-.4,1.26-.72s.56-.74,.71-1.25,.22-1.11,.22-1.82v-3.59c0-1.4,.16-2.63,.48-3.68,.31-1.06,.82-1.94,1.5-2.65s1.54-1.24,2.59-1.6c1.05-.36,2.31-.54,3.79-.54h1.71v3.83h-1.28c-.65,0-1.24,.08-1.76,.23s-.97,.41-1.36,.77c-.38,.35-.67,.82-.88,1.39s-.3,1.3-.3,2.15v3.56c0,1.02-.09,1.89-.25,2.6-.17,.72-.44,1.32-.78,1.8-.36,.48-.8,.85-1.34,1.12-.54,.26-1.18,.45-1.91,.56,1.45,.17,2.53,.73,3.24,1.7,.71,.97,1.06,2.46,1.06,4.46v5.17c0,.88,.1,1.62,.3,2.2s.5,1.05,.88,1.4,.83,.6,1.36,.76c.52,.15,1.11,.23,1.76,.23h1.28v3.83h-1.71Z" style="fill: #bad9eb;"/>
      <path d="M970.8,549.55v-3.93h22.92v3.93h-22.92Z" style="fill: #bad9eb;"/>
      <path d="M1010.81,534.28l-.7,6.92h-3.99l.71-6.92h-4.73l-.7,6.92h-3.99l.71-6.92h-3.59v-3.72h3.95l.59-5.84h-3.46v-3.72h3.83l.65-6.4h3.99l-.65,6.4h4.7l.65-6.4h3.99l-.65,6.4h3.62v3.72h-3.99l-.59,5.84h3.5v3.72h-3.86Zm-3.01-9.56h-4.7l-.59,5.84h4.7l.59-5.84Z" style="fill: #bad9eb;"/>
      <path d="M1016.65,549.55v-3.93h22.92v3.93h-22.92Z" style="fill: #bad9eb;"/>
      <path d="M1045.71,511.53c2.82,0,4.93,.68,6.31,2.03s2.08,3.5,2.08,6.44v3.42c0,1.4,.3,2.45,.92,3.14s1.65,1.04,3.11,1.04h1.31v3.85h-1.31c-.73,0-1.36,.08-1.87,.23-.51,.16-.93,.4-1.25,.72-.32,.32-.55,.74-.7,1.25s-.22,1.11-.22,1.82v5.35c0,1.4-.16,2.62-.48,3.67-.32,1.05-.82,1.93-1.5,2.64s-1.55,1.24-2.6,1.6-2.33,.54-3.8,.54h-1.71v-3.83h1.31c.65,0,1.24-.08,1.76-.23s.97-.4,1.36-.77c.38-.36,.67-.83,.88-1.4s.3-1.3,.3-2.15v-5.29c0-1.02,.09-1.89,.25-2.62s.43-1.33,.77-1.81,.79-.85,1.33-1.11c.54-.26,1.18-.44,1.91-.55-1.45-.17-2.53-.75-3.23-1.72-.7-.97-1.04-2.46-1.04-4.46v-3.4c0-.88-.1-1.62-.3-2.21s-.5-1.06-.88-1.42c-.38-.35-.84-.6-1.36-.76-.52-.15-1.11-.23-1.76-.23h-1.31v-3.83h1.71v.03Z" style="fill: #bad9eb;"/>
      <path d="M1094.61,524.77v-16.92h4.58v16.92h-4.58Zm0,24.78v-17.42h4.58v17.42h-4.58Z" style="fill: #bad9eb;"/>
      <path d="M947.87,601.67v-3.93h22.92v3.93h-22.92Z" style="fill: #ffea82;"/>
      <path d="M976.18,601.4v-3.86h6.08v-30.03h-6.08v-3.86h10.67v37.76h-10.67Z" style="fill: #ffea82;"/>
      <path d="M1022.86,601.4v-37.76h10.7v3.86h-6.13v30.03h6.13v3.86h-10.7Z" style="fill: #ffea82;"/>
      <path d="M1039.58,601.67v-3.93h22.92v3.93h-22.92Z" style="fill: #ffea82;"/>
    </g>
    <g>
      <path d="M1341.02,449.28v-3.93h22.92v3.93h-22.92Z" style="fill: #c8d300;"/>
      <path d="M1398.33,435.05c.44,0,.84,.08,1.24,.24s.72,.38,1.01,.67,.51,.62,.68,1.01c.17,.38,.25,.8,.25,1.25s-.09,.86-.25,1.25c-.17,.38-.4,.72-.68,1.01s-.62,.5-1.01,.67-.79,.24-1.24,.24-.84-.08-1.24-.24-.72-.38-1.01-.67-.5-.62-.67-1.01-.24-.8-.24-1.25,.08-.86,.24-1.25,.38-.72,.67-1.01,.62-.5,1.01-.67,.8-.24,1.24-.24Zm2.14-2.38h-4.26l-.76-20.5h5.76l-.76,20.5h0Z" style="fill: #c8d300;"/>
      <path d="M1432.72,449.28v-3.93h22.92v3.93h-22.92Z" style="fill: #c8d300;"/>
      <path d="M1324.63,496.96v-37.76h10.7v3.86h-6.13v30.03h6.13v3.86h-10.7Z" style="fill: #58a1d4;"/>
      <path d="M1366.98,475.73v-3.95h17.51v3.95h-17.51Zm0,8.02v-3.95h17.51v3.95h-17.51Z" style="fill: #58a1d4;"/>
      <path d="M1389.9,475.73v-3.95h17.51v3.95h-17.51Zm0,8.02v-3.95h17.51v3.95h-17.51Z" style="fill: #58a1d4;"/>
      <path d="M1412.83,475.73v-3.95h17.51v3.95h-17.51Zm0,8.02v-3.95h17.51v3.95h-17.51Z" style="fill: #58a1d4;"/>
      <path d="M1461.35,496.96v-3.86h6.08v-30.03h-6.08v-3.86h10.67v37.76h-10.67Z" style="fill: #58a1d4;"/>
      <path d="M1301.45,545.38h-4.82l14.21-33.14h4.85l-14.23,33.14h0Z" style="fill: #c8d300;"/>
      <path d="M1357.81,549.09c-2.81,0-4.91-.68-6.29-2.03s-2.08-3.49-2.08-6.42v-5.17c0-1.4-.31-2.45-.94-3.16-.63-.7-1.66-1.06-3.12-1.06h-1.28v-3.85h1.28c.73,0,1.36-.08,1.87-.23s.94-.4,1.26-.72,.56-.74,.71-1.25,.22-1.11,.22-1.82v-3.59c0-1.4,.16-2.63,.48-3.68,.32-1.06,.82-1.94,1.5-2.65s1.55-1.24,2.59-1.6c1.05-.36,2.32-.54,3.79-.54h1.71v3.83h-1.28c-.65,0-1.24,.08-1.76,.23s-.97,.41-1.36,.77c-.38,.35-.67,.82-.88,1.39s-.3,1.3-.3,2.15v3.56c0,1.02-.09,1.89-.25,2.6-.17,.72-.43,1.32-.78,1.8-.35,.48-.8,.85-1.34,1.12-.54,.26-1.18,.45-1.91,.56,1.45,.17,2.53,.73,3.24,1.7,.71,.97,1.06,2.46,1.06,4.46v5.17c0,.88,.1,1.62,.3,2.2s.5,1.05,.88,1.4c.38,.35,.84,.6,1.36,.76,.52,.15,1.11,.23,1.76,.23h1.28v3.83h-1.71Z" style="fill: #c8d300;"/>
      <path d="M1363.94,549.35v-3.93h22.92v3.93h-22.92Z" style="fill: #c8d300;"/>
      <path d="M1403.94,534.08l-.7,6.92h-3.99l.71-6.92h-4.73l-.7,6.92h-3.99l.71-6.92h-3.59v-3.72h3.95l.59-5.84h-3.46v-3.72h3.83l.65-6.4h3.99l-.65,6.4h4.7l.65-6.4h3.99l-.65,6.4h3.62v3.72h-3.99l-.59,5.84h3.5v3.72h-3.86Zm-3.01-9.56h-4.7l-.59,5.84h4.7l.59-5.84Z" style="fill: #c8d300;"/>
      <path d="M1409.79,549.35v-3.93h22.92v3.93h-22.92Z" style="fill: #c8d300;"/>
      <path d="M1438.84,511.33c2.82,0,4.93,.68,6.31,2.03,1.38,1.35,2.08,3.5,2.08,6.44v3.42c0,1.4,.31,2.45,.92,3.14,.62,.7,1.65,1.04,3.11,1.04h1.31v3.85h-1.31c-.73,0-1.36,.08-1.87,.23s-.93,.4-1.25,.72c-.31,.32-.55,.74-.7,1.25s-.22,1.11-.22,1.82v5.35c0,1.4-.16,2.62-.48,3.67-.31,1.05-.82,1.93-1.5,2.64s-1.55,1.24-2.6,1.6-2.32,.54-3.8,.54h-1.71v-3.83h1.31c.65,0,1.24-.08,1.76-.23s.97-.4,1.36-.77c.38-.36,.67-.83,.88-1.4s.3-1.3,.3-2.15v-5.29c0-1.02,.09-1.89,.25-2.62,.17-.73,.43-1.33,.77-1.81s.79-.85,1.33-1.11c.54-.26,1.18-.44,1.91-.55-1.45-.17-2.52-.75-3.23-1.72-.7-.97-1.04-2.46-1.04-4.46v-3.4c0-.88-.1-1.62-.3-2.21s-.5-1.06-.88-1.42c-.38-.35-.83-.6-1.36-.76-.52-.15-1.11-.23-1.76-.23h-1.31v-3.83h1.71v.03Z" style="fill: #c8d300;"/>
      <path d="M1485.81,512.24l14.23,33.14h-4.85l-14.21-33.14h4.83Z" style="fill: #c8d300;"/>
      <path d="M1341.01,601.47v-3.93h22.92v3.93h-22.92Z" style="fill: #8262a7;"/>
      <path d="M1379.37,601.67c-3.3-2.79-5.77-5.8-7.42-9-1.64-3.2-2.47-6.65-2.47-10.34,0-2.06,.24-4.01,.73-5.86s1.17-3.57,2.06-5.18c.89-1.62,1.95-3.13,3.18-4.55,1.23-1.42,2.58-2.74,4.04-3.98l2.83,2.83c-2.65,2.38-4.63,4.94-5.96,7.69-1.33,2.76-1.99,5.66-1.99,8.69s.66,6.04,1.99,8.89c1.33,2.85,3.32,5.44,5.96,7.79l-2.95,3.01h0Z" style="fill: #8262a7;"/>
      <path d="M1417.38,562.77c3.32,2.77,5.81,5.76,7.43,8.96,1.63,3.21,2.45,6.67,2.45,10.37,0,2.06-.24,4.01-.73,5.84-.49,1.83-1.17,3.56-2.05,5.2-.87,1.64-1.92,3.15-3.14,4.57-1.22,1.42-2.57,2.74-4.03,3.96l-2.85-2.83c2.66-2.38,4.66-4.94,5.99-7.72,1.33-2.77,1.99-5.67,1.99-8.71s-.66-6.02-1.99-8.88c-1.33-2.85-3.32-5.46-5.99-7.82l2.93-2.95h0Z" style="fill: #8262a7;"/>
      <path d="M1432.72,601.47v-3.93h22.92v3.93h-22.92Z" style="fill: #8262a7;"/>
    </g>
    <g>
      <path d="M1735.83,449.28v-3.93h22.92v3.93h-22.92Z" style="fill: #a4c616;"/>
      <path d="M1793.14,435.05c.44,0,.84,.08,1.24,.24s.72,.38,1.01,.67,.51,.62,.68,1.01c.17,.38,.25,.8,.25,1.25s-.09,.86-.25,1.25c-.17,.38-.4,.72-.68,1.01s-.62,.5-1.01,.67-.8,.24-1.24,.24-.84-.08-1.24-.24-.72-.38-1.01-.67-.5-.62-.67-1.01-.24-.8-.24-1.25,.08-.86,.24-1.25,.38-.72,.67-1.01,.62-.5,1.01-.67,.79-.24,1.24-.24Zm2.14-2.38h-4.26l-.76-20.5h5.76l-.76,20.5h0Z" style="fill: #a4c616;"/>
      <path d="M1827.52,449.28v-3.93h22.92v3.93h-22.92Z" style="fill: #a4c616;"/>
      <path d="M1719.45,496.96v-37.76h10.7v3.86h-6.13v30.03h6.13v3.86h-10.7Z" style="fill: #52b2bf;"/>
      <path d="M1775.65,475.29l-5.33-9.41-5.26,9.41h-4.26l7.72-13.01h3.79l7.96,13.01h-4.62Z" style="fill: #52b2bf;"/>
      <path d="M1782.01,497.23v-3.93h22.92v3.93h-22.92Z" style="fill: #52b2bf;"/>
      <path d="M1821.51,475.29l-5.33-9.41-5.26,9.41h-4.26l7.72-13.01h3.79l7.96,13.01h-4.62Z" style="fill: #52b2bf;"/>
      <path d="M1856.16,496.96v-3.86h6.08v-30.03h-6.08v-3.86h10.67v37.76h-10.67Z" style="fill: #52b2bf;"/>
      <path d="M1701.4,533.49c.57,0,1.1,.1,1.58,.31s.91,.5,1.27,.85,.64,.78,.84,1.27,.3,1.01,.3,1.57-.1,1.05-.3,1.54-.49,.91-.84,1.26-.78,.64-1.27,.85-1.02,.31-1.58,.31-1.05-.1-1.52-.31c-.48-.21-.89-.5-1.24-.85s-.64-.78-.84-1.26-.3-.99-.3-1.54,.1-1.08,.3-1.57,.48-.91,.84-1.27c.35-.36,.77-.64,1.24-.85,.48-.21,.98-.31,1.52-.31Z" style="fill: #e6371f;"/>
      <path d="M1742.12,549.09v-37.76h10.7v3.86h-6.13v30.03h6.13v3.86h-10.7Z" style="fill: #e6371f;"/>
      <path d="M1758.84,549.35v-3.93h22.92v3.93h-22.92Z" style="fill: #e6371f;"/>
      <path d="M1798.84,534.08l-.7,6.92h-3.99l.71-6.92h-4.73l-.7,6.92h-3.99l.71-6.92h-3.59v-3.72h3.95l.59-5.84h-3.46v-3.72h3.83l.65-6.4h3.99l-.65,6.4h4.7l.65-6.4h3.99l-.65,6.4h3.62v3.72h-3.99l-.59,5.84h3.5v3.72h-3.86Zm-3.01-9.56h-4.7l-.59,5.84h4.7l.59-5.84Z" style="fill: #e6371f;"/>
      <path d="M1804.69,549.35v-3.93h22.92v3.93h-22.92Z" style="fill: #e6371f;"/>
      <path d="M1832.98,549.09v-3.86h6.08v-30.03h-6.08v-3.86h10.67v37.76h-10.67Z" style="fill: #e6371f;"/>
      <path d="M1884.8,533.49c.57,0,1.1,.1,1.58,.31s.91,.5,1.27,.85,.64,.78,.84,1.27,.3,1.01,.3,1.57-.1,1.05-.3,1.54-.49,.91-.84,1.26-.78,.64-1.27,.85-1.02,.31-1.58,.31-1.05-.1-1.52-.31c-.48-.21-.89-.5-1.24-.85s-.64-.78-.84-1.26-.3-.99-.3-1.54,.1-1.08,.3-1.57,.48-.91,.84-1.27c.35-.36,.77-.64,1.24-.85,.48-.21,.98-.31,1.52-.31Z" style="fill: #e6371f;"/>
      <path d="M1774.14,601.67c-3.3-2.79-5.77-5.8-7.42-9s-2.47-6.65-2.47-10.34c0-2.06,.24-4.01,.73-5.86s1.18-3.57,2.06-5.18c.89-1.62,1.95-3.13,3.18-4.55,1.23-1.42,2.58-2.74,4.04-3.98l2.83,2.83c-2.65,2.38-4.63,4.94-5.96,7.69-1.33,2.76-1.99,5.66-1.99,8.69s.66,6.04,1.99,8.89c1.33,2.85,3.32,5.44,5.96,7.79l-2.95,3.01h0Z" style="fill: #c8d300;"/>
      <path d="M1803.09,582.62c0,1.63-.23,3.12-.7,4.46-.46,1.35-1.12,2.51-1.99,3.47-.87,.97-1.93,1.71-3.19,2.24s-2.7,.79-4.32,.79c-1.53,0-2.91-.23-4.12-.67s-2.23-1.11-3.07-2c-.84-.89-1.49-2-1.93-3.34-.44-1.34-.67-2.9-.67-4.67,0-1.64,.24-3.13,.71-4.48,.47-1.35,1.14-2.49,2.02-3.44s1.94-1.69,3.2-2.21,2.69-.78,4.27-.78,2.92,.23,4.13,.68,2.24,1.13,3.07,2.03c.84,.9,1.49,2,1.92,3.32,.44,1.32,.66,2.85,.66,4.6h0Zm-5.17,.13c0-2.14-.4-3.76-1.21-4.84s-1.99-1.62-3.58-1.62c-.87,0-1.61,.17-2.22,.5s-1.11,.8-1.51,1.39-.68,1.28-.86,2.06-.28,1.63-.28,2.52c0,2.16,.44,3.79,1.31,4.87,.87,1.1,2.05,1.64,3.56,1.64,.83,0,1.55-.17,2.16-.5s1.11-.79,1.49-1.38,.66-1.29,.85-2.09c.19-.8,.29-1.66,.29-2.58v.02Z" style="fill: #c8d300;"/>
      <path d="M1812.15,562.77c3.32,2.77,5.8,5.76,7.43,8.96,1.63,3.2,2.45,6.67,2.45,10.37,0,2.06-.24,4.01-.73,5.84s-1.18,3.56-2.05,5.2c-.87,1.64-1.92,3.15-3.14,4.57s-2.57,2.74-4.03,3.96l-2.85-2.83c2.66-2.38,4.66-4.94,5.99-7.72,1.33-2.77,1.99-5.67,1.99-8.71s-.66-6.02-1.99-8.88c-1.33-2.85-3.32-5.46-5.99-7.82l2.93-2.95h0Z" style="fill: #c8d300;"/>
    </g>
    <g>
      <path d="M554.73,449.28v-3.93h22.92v3.93h-22.92Z" style="fill: #96191d;"/>
      <path d="M597.3,421c0,1.14-.17,2.16-.52,3.06s-.84,1.68-1.49,2.34c-.64,.66-1.43,1.19-2.33,1.6-.91,.41-1.93,.69-3.05,.84l-.2,3.83h-4.26l-.37-7.66h2.95c.66,0,1.24-.1,1.72-.29,.48-.19,.88-.44,1.18-.77s.53-.7,.67-1.13,.22-.88,.22-1.36c0-.65-.14-1.26-.42-1.82-.28-.57-.71-1.06-1.31-1.49s-1.34-.77-2.25-1.01c-.91-.24-2-.37-3.28-.37h-1.2v-4.62h1.4c2.09,0,3.92,.25,5.47,.74,1.56,.5,2.86,1.16,3.91,1.98s1.83,1.76,2.35,2.82c.52,1.06,.78,2.16,.78,3.3h0Zm-6.35,17.15c0,.44-.09,.87-.26,1.26s-.42,.74-.71,1.04-.65,.53-1.06,.7-.84,.25-1.31,.25-.9-.09-1.3-.25c-.4-.17-.75-.4-1.04-.7-.3-.3-.54-.64-.71-1.04s-.26-.82-.26-1.26,.09-.87,.26-1.26,.41-.74,.71-1.04c.3-.3,.64-.53,1.04-.7,.4-.17,.83-.25,1.3-.25s.9,.09,1.31,.25,.76,.4,1.06,.7c.3,.3,.54,.64,.71,1.04s.26,.82,.26,1.26Z" style="fill: #96191d;"/>
      <path d="M643.15,421c0,1.14-.17,2.16-.52,3.06s-.84,1.68-1.49,2.34c-.64,.66-1.43,1.19-2.33,1.6-.91,.41-1.93,.69-3.05,.84l-.2,3.83h-4.26l-.37-7.66h2.95c.66,0,1.24-.1,1.72-.29,.48-.19,.88-.44,1.18-.77s.53-.7,.67-1.13,.22-.88,.22-1.36c0-.65-.14-1.26-.42-1.82-.28-.57-.71-1.06-1.31-1.49s-1.34-.77-2.25-1.01c-.91-.24-2-.37-3.28-.37h-1.2v-4.62h1.4c2.09,0,3.92,.25,5.47,.74,1.56,.5,2.86,1.16,3.91,1.98s1.83,1.76,2.35,2.82c.52,1.06,.78,2.16,.78,3.3h0Zm-6.35,17.15c0,.44-.09,.87-.26,1.26s-.42,.74-.71,1.04-.65,.53-1.06,.7-.84,.25-1.31,.25-.9-.09-1.3-.25c-.4-.17-.75-.4-1.04-.7-.3-.3-.54-.64-.71-1.04s-.26-.82-.26-1.26,.09-.87,.26-1.26,.41-.74,.71-1.04c.3-.3,.64-.53,1.04-.7,.4-.17,.83-.25,1.3-.25s.9,.09,1.31,.25,.76,.4,1.06,.7c.3,.3,.54,.64,.71,1.04s.26,.82,.26,1.26Z" style="fill: #96191d;"/>
      <path d="M646.43,449.28v-3.93h22.92v3.93h-22.92Z" style="fill: #96191d;"/>
      <path d="M538.35,496.96v-37.76h10.7v3.86h-6.13v30.03h6.13v3.86h-10.7Z" style="fill: #96191d;"/>
      <path d="M591.59,477.7h-4.26l.57-6.29-5.11,3.66-2.05-3.54,5.72-2.63-5.72-2.63,2.05-3.54,5.11,3.66-.57-6.29h4.26l-.59,6.29,5.13-3.66,2.04,3.54-5.7,2.63,5.7,2.63-2.04,3.54-5.13-3.66,.59,6.29Z" style="fill: #96191d;"/>
      <path d="M600.91,497.23v-3.93h22.92v3.93h-22.92Z" style="fill: #96191d;"/>
      <path d="M637.44,477.7h-4.26l.57-6.29-5.11,3.66-2.05-3.54,5.72-2.63-5.72-2.63,2.05-3.54,5.11,3.66-.57-6.29h4.26l-.59,6.29,5.13-3.66,2.04,3.54-5.7,2.63,5.7,2.63-2.04,3.54-5.13-3.66,.59,6.29Z" style="fill: #96191d;"/>
      <path d="M675.07,496.96v-3.86h6.08v-30.03h-6.08v-3.86h10.67v37.76h-10.67Z" style="fill: #96191d;"/>
      <path d="M515.17,545.38h-4.82l14.21-33.14h4.85l-14.23,33.14h0Z" style="fill: #a1135c;"/>
      <path d="M560.94,549.09v-37.76h10.7v3.86h-6.13v30.03h6.13v3.86h-10.7Z" style="fill: #a1135c;"/>
      <path d="M577.66,549.35v-3.93h22.92v3.93h-22.92Z" style="fill: #a1135c;"/>
      <path d="M617.66,534.08l-.7,6.92h-3.99l.71-6.92h-4.73l-.7,6.92h-3.99l.71-6.92h-3.59v-3.72h3.95l.59-5.84h-3.46v-3.72h3.83l.65-6.4h3.99l-.65,6.4h4.7l.65-6.4h3.99l-.65,6.4h3.62v3.72h-3.99l-.59,5.84h3.5v3.72h-3.86Zm-3.01-9.56h-4.7l-.59,5.84h4.7l.59-5.84Z" style="fill: #a1135c;"/>
      <path d="M623.51,549.35v-3.93h22.92v3.93h-22.92Z" style="fill: #a1135c;"/>
      <path d="M651.8,549.09v-3.86h6.08v-30.03h-6.08v-3.86h10.67v37.76h-10.67Z" style="fill: #a1135c;"/>
      <path d="M699.53,512.24l14.23,33.14h-4.85l-14.21-33.14h4.83Z" style="fill: #a1135c;"/>
      <path d="M547.2,601.67c-3.3-2.79-5.77-5.8-7.42-9s-2.47-6.65-2.47-10.34c0-2.06,.24-4.01,.73-5.86,.49-1.85,1.17-3.57,2.06-5.18,.89-1.62,1.95-3.13,3.18-4.55,1.23-1.42,2.58-2.74,4.04-3.98l2.83,2.83c-2.65,2.38-4.63,4.94-5.96,7.69-1.33,2.76-1.99,5.66-1.99,8.69s.66,6.04,1.99,8.89c1.33,2.85,3.32,5.44,5.96,7.79l-2.95,3.01h0Z" style="fill: #c8d300;"/>
      <path d="M557.4,579.98v-3.95h17.51v3.95h-17.51Zm0,8.02v-3.95h17.51v3.95h-17.51Z" style="fill: #c8d300;"/>
      <path d="M585.21,562.77c3.32,2.77,5.81,5.76,7.43,8.96s2.45,6.67,2.45,10.37c0,2.06-.24,4.01-.73,5.84-.49,1.83-1.17,3.56-2.05,5.2-.87,1.64-1.92,3.15-3.14,4.57-1.22,1.42-2.57,2.74-4.03,3.96l-2.85-2.83c2.66-2.38,4.66-4.94,5.99-7.72,1.33-2.77,1.99-5.67,1.99-8.71s-.66-6.02-1.99-8.88c-1.33-2.85-3.32-5.46-5.99-7.82l2.93-2.95h0Z" style="fill: #c8d300;"/>
      <path d="M638.9,601.67c-3.3-2.79-5.77-5.8-7.42-9s-2.47-6.65-2.47-10.34c0-2.06,.24-4.01,.73-5.86,.49-1.85,1.17-3.57,2.06-5.18,.89-1.62,1.95-3.13,3.18-4.55,1.23-1.42,2.58-2.74,4.04-3.98l2.83,2.83c-2.65,2.38-4.63,4.94-5.96,7.69-1.33,2.76-1.99,5.66-1.99,8.69s.66,6.04,1.99,8.89c1.33,2.85,3.32,5.44,5.96,7.79l-2.95,3.01h0Z" style="fill: #c8d300;"/>
      <path d="M649.1,579.98v-3.95h17.51v3.95h-17.51Zm0,8.02v-3.95h17.51v3.95h-17.51Z" style="fill: #c8d300;"/>
      <path d="M676.9,562.77c3.32,2.77,5.81,5.76,7.43,8.96,1.63,3.2,2.45,6.67,2.45,10.37,0,2.06-.24,4.01-.73,5.84-.49,1.83-1.17,3.56-2.05,5.2-.87,1.64-1.92,3.15-3.14,4.57s-2.57,2.74-4.03,3.96l-2.85-2.83c2.66-2.38,4.66-4.94,5.99-7.72,1.33-2.77,1.99-5.67,1.99-8.71s-.66-6.02-1.99-8.88c-1.33-2.85-3.32-5.46-5.99-7.82l2.93-2.95h0Z" style="fill: #c8d300;"/>
    </g>
    <g>
      <path d="M2130.63,440.02v-3.93h22.92v3.93h-22.92Z" style="fill: #ababab;"/>
      <path d="M2162.73,440.02v-41.7h4.58v41.7h-4.58Z" style="fill: #ababab;"/>
      <path d="M2208.58,440.02v-41.7h4.58v41.7h-4.58Z" style="fill: #ababab;"/>
      <path d="M2222.32,440.02v-3.93h22.92v3.93h-22.92Z" style="fill: #ababab;"/>
      <path d="M2114.25,487.71v-37.76h10.7v3.86h-6.13v30.03h6.13v3.86h-10.7Z" style="fill: #afbe1b;"/>
      <path d="M2165.35,460.94c1.02,0,1.98,.19,2.88,.58s1.69,.91,2.35,1.58,1.19,1.45,1.58,2.35,.58,1.86,.58,2.88-.19,1.98-.58,2.87-.91,1.68-1.58,2.34-1.44,1.19-2.35,1.58-1.86,.58-2.88,.58-1.98-.19-2.87-.58-1.68-.91-2.34-1.58-1.19-1.44-1.58-2.34-.58-1.85-.58-2.87,.19-1.98,.58-2.88,.91-1.69,1.58-2.35,1.44-1.19,2.34-1.58,1.85-.58,2.87-.58Z" style="fill: #afbe1b;"/>
      <path d="M2176.81,487.98v-3.93h22.92v3.93h-22.92Z" style="fill: #afbe1b;"/>
      <path d="M2211.2,464.19c.57,0,1.1,.1,1.58,.31s.91,.5,1.27,.85,.64,.78,.84,1.27,.3,1.01,.3,1.57-.1,1.05-.3,1.52-.49,.89-.84,1.25-.78,.64-1.27,.85-1.02,.31-1.58,.31-1.05-.1-1.52-.31-.89-.5-1.24-.85-.64-.77-.84-1.25-.3-.98-.3-1.52,.1-1.08,.3-1.57,.48-.91,.84-1.27,.77-.64,1.24-.85,.98-.31,1.52-.31Z" style="fill: #afbe1b;"/>
      <path d="M2250.96,487.71v-3.86h6.08v-30.03h-6.08v-3.86h10.67v37.76h-10.67Z" style="fill: #afbe1b;"/>
      <path d="M2091.07,536.12h-4.82l14.21-33.14h4.85l-14.23,33.14h0Z" style="fill: #ee852a;"/>
      <path d="M2136.84,539.83v-37.76h10.7v3.86h-6.13v30.03h6.13v3.86h-10.7Z" style="fill: #ee852a;"/>
      <path d="M2153.55,540.09v-3.93h22.92v3.93h-22.92Z" style="fill: #ee852a;"/>
      <path d="M2193.56,524.83l-.7,6.92h-3.99l.71-6.92h-4.73l-.7,6.92h-3.99l.71-6.92h-3.59v-3.72h3.95l.59-5.84h-3.46v-3.72h3.83l.65-6.4h3.99l-.65,6.4h4.7l.65-6.4h3.99l-.65,6.4h3.62v3.72h-3.99l-.59,5.84h3.5v3.72h-3.86Zm-3.01-9.56h-4.7l-.59,5.84h4.7l.59-5.84Z" style="fill: #ee852a;"/>
      <path d="M2199.41,540.09v-3.93h22.92v3.93h-22.92Z" style="fill: #ee852a;"/>
      <path d="M2227.7,539.83v-3.86h6.08v-30.03h-6.08v-3.86h10.67v37.76h-10.67Z" style="fill: #ee852a;"/>
      <path d="M2275.42,502.98l14.23,33.14h-4.85l-14.21-33.14h4.83Z" style="fill: #ee852a;"/>
      <path d="M2130.63,592.22v-3.93h22.92v3.93h-22.92Z" style="fill: #e53722;"/>
      <path d="M2156.26,570.72v-3.95h17.51v3.95h-17.51Zm0,8.02v-3.95h17.51v3.95h-17.51Z" style="fill: #e53722;"/>
      <path d="M2179.18,570.72v-3.95h17.51v3.95h-17.51Zm0,8.02v-3.95h17.51v3.95h-17.51Z" style="fill: #e53722;"/>
      <path d="M2202.11,570.72v-3.95h17.51v3.95h-17.51Zm0,8.02v-3.95h17.51v3.95h-17.51Z" style="fill: #e53722;"/>
      <path d="M2222.32,592.22v-3.93h22.92v3.93h-22.92Z" style="fill: #e53722;"/>
    </g>
  </g>
  <text transform="translate(1334.16 938.22)" style="fill: ivory; font-family: Consolas-Bold, Consolas; font-size: 48px; font-weight: 700;"><tspan x="0" y="0">#R0B0</tspan></text>
</svg>